<?xml version="1.0" encoding="UTF-8" standalone="no"?>
<!-- Created with Inkscape (http://www.inkscape.org/) -->

<svg
   width="1080"
   height="1080"
   viewBox="0 0 1080 1080"
   version="1.1"
   id="svg1"
   xml:space="preserve"
   inkscape:version="1.3.2 (091e20e, 2023-11-25, custom)"
   sodipodi:docname="portfolio.svg"
   xmlns:inkscape="http://www.inkscape.org/namespaces/inkscape"
   xmlns:sodipodi="http://sodipodi.sourceforge.net/DTD/sodipodi-0.dtd"
   xmlns="http://www.w3.org/2000/svg"
   xmlns:svg="http://www.w3.org/2000/svg"><sodipodi:namedview
     id="namedview1"
     pagecolor="#ffffff"
     bordercolor="#000000"
     borderopacity="0.25"
     inkscape:showpageshadow="2"
     inkscape:pageopacity="0.0"
     inkscape:pagecheckerboard="0"
     inkscape:deskcolor="#d1d1d1"
     inkscape:document-units="px"
     inkscape:zoom="0.60740741"
     inkscape:cx="452.7439"
     inkscape:cy="540.82317"
     inkscape:window-width="1920"
     inkscape:window-height="974"
     inkscape:window-x="-11"
     inkscape:window-y="-11"
     inkscape:window-maximized="1"
     inkscape:current-layer="layer1" /><defs
     id="defs1" /><g
     inkscape:label="Layer 1"
     inkscape:groupmode="layer"
     id="layer1"><path
       style="fill:#ffffff;fill-opacity:1;stroke-width:11.3386"
       d="m 508.04114,371.91851 c -3.26319,0.9781 -6.40463,2.55047 -9.78956,2.93431 -1.96606,0.22295 -3.85732,-0.91871 -5.8207,-1.16414 -8.31318,-1.03914 -17.41394,1.63943 -25.61106,0 -0.53812,-0.10762 -0.67329,-0.91871 -1.16414,-1.16413 -1.6302,-0.81511 -18.4131,0.70505 -19.79036,1.16413 -0.52062,0.17354 -0.6733,0.91872 -1.16414,1.16414 -2.90325,1.45163 -9.50479,0 -12.80554,0 -3.03067,0 -10.22659,-1.28946 -12.80553,0 -1.69085,0.84543 -2.50962,1.79155 -4.65655,2.32828 -0.75292,0.18823 -1.59202,-0.24542 -2.32828,0 -1.04124,0.34708 -1.28704,1.9812 -2.32828,2.32828 -3.29711,1.09904 -8.55993,-1.54073 -11.64139,0 -3.48308,1.74154 -15.08159,3.89787 -19.79037,2.32828 -4.15269,-1.38423 -7.96812,-5.1482 -11.64139,-6.98484 -0.96925,-0.48462 -3.91813,0.73843 -4.65656,0 -0.27439,-0.27439 0.27439,-0.88975 0,-1.16414 -1.11917,-1.11917 -5.49067,0.33003 -6.98483,-1.16413 -0.27439,-0.27439 0.17354,-0.81706 0,-1.16414 -0.68764,-1.37528 -2.63626,-2.20819 -3.49242,-3.49242 -0.98319,-1.47479 -2.85013,-6.34254 -3.49242,-6.98484 -0.54878,-0.54878 -1.63412,0.34708 -2.32828,0 -4.22702,-2.11351 -2.21702,-4.43405 -3.49241,-6.98483 -0.17354,-0.34708 -0.9906,0.34708 -1.16414,0 -0.96982,-1.93963 0.59419,-8.76741 1.16414,-10.47725 0.34708,-1.04124 1.9812,-1.28705 2.32827,-2.32828 0.24543,-0.73627 -0.34707,-1.63412 0,-2.32828 0.17354,-0.34708 0.88975,0.27439 1.16414,0 0.90106,-0.90106 0.51058,-4.51357 1.16414,-5.8207 2.66391,-5.32781 -0.4825,4.93993 2.32828,-3.49242 0.24542,-0.73626 -0.34708,-1.63411 0,-2.32827 1.27545,-2.5509 4.05585,-5.14544 4.65656,-8.14898 0.27663,-1.38318 0.4718,-7.92844 1.16414,-9.31311 0.67803,-1.35608 1.65024,-2.13635 2.32828,-3.49242 1.24174,-2.4835 -1.24175,-6.82962 0,-9.31311 0.17354,-0.34708 1.04142,0.36813 1.16414,0 1.36273,-4.08821 -0.84271,-9.75617 0,-13.96967 0.10762,-0.53813 0.99059,-0.64352 1.16413,-1.16414 1.05546,-3.16638 1.09347,-7.18442 2.32828,-10.47726 1.62664,-4.33769 5.88692,-8.41385 6.98484,-12.80553 1.26403,-5.05614 5.18246,-18.41051 8.14897,-22.11864 2.22028,-2.77534 5.01795,-5.19864 6.98484,-8.14898 4.78009,-7.17013 -0.1066,-2.19502 4.65655,-8.14897 0.68565,-0.85705 1.76359,-1.38713 2.32828,-2.32828 1.65218,-2.75363 0.15635,-3.80511 1.16414,-5.82069 1.24382,-2.48764 4.54892,-4.44129 5.8207,-6.98484 0.82113,-1.64226 1.35028,-5.51784 2.32828,-6.98484 3.34316,-5.01474 8.39766,-9.72759 11.64139,-15.1338 1.25024,-2.08373 1.65457,-5.147 3.49242,-6.98484 7.69719,-7.69719 -2.72065,4.36877 4.65655,-1.16414 1.1193,-0.83947 1.33895,-2.50309 2.32828,-3.49242 2.547,-2.547 14.31904,-7.3342 15.13381,-8.14897 0.27439,-0.27439 -0.38277,-1.10035 0,-1.16414 2.2966,-0.38277 4.70177,0.45661 6.98484,0 1.70169,-0.34034 2.97297,-1.90738 4.65655,-2.32828 1.50584,-0.37646 3.11997,0.21951 4.65656,0 3.26314,-0.46616 6.25839,-2.47417 9.31311,-3.49242 1.84067,-0.61355 3.91815,0.38051 5.8207,0 1.7017,-0.34034 2.97297,-1.90738 4.65656,-2.32827 1.8261,-0.45653 3.99459,0.45652 5.82069,0 0.5324,-0.1331 0.64352,-0.9906 1.16414,-1.16414 1.63383,-0.54461 4.28761,0.76654 5.8207,0 5.66341,-2.83171 14.50638,-0.71625 20.9545,-2.32828 0.84179,-0.21045 1.50511,-0.88975 2.32828,-1.16414 1.61461,-0.5382 4.30931,0.37785 5.8207,0 0.53239,-0.1331 0.62601,-1.05652 1.16414,-1.16414 2.28306,-0.45661 4.90236,1.04124 6.98483,0 1.45545,-0.72773 1.56287,-1.64653 3.49242,-1.16414 14.64189,3.66047 28.5463,3.50181 42.96513,8.00769 4.60313,1.43848 6.48862,3.31929 11.23867,4.50681 2.32828,0.58207 6.66053,-5.73002 10.15295,-4.56588 1.59612,2.14339 6.07239,4.9315 8.48559,5.0871 4.60229,-0.82508 1.26853,-5.43006 6.42352,1.32459 3.24595,4.25321 8.3189,6.5942 13.86528,6.5942 2.37316,0 15.19838,-1.13186 17.46208,0 2.75324,1.37661 4.11822,1.37274 6.98484,2.32827 1.65106,0.55036 1.66217,2.82632 2.32828,3.49242 0.54878,0.54878 1.7795,-0.54878 2.32828,0 0.27439,0.27439 0,0.77609 0,1.16414 l 9.04199,-0.92142 c 8.71154,5.83047 19.08957,12.07685 27.04632,16.05523 1.63469,0.81734 2.9968,4.16093 3.49242,4.65656 0.16681,0.16681 5.42322,3.35992 5.8207,3.49241 0.73626,0.24543 1.77949,-0.54878 2.32827,0 0.27439,0.2744 0,0.7761 0,1.16414 1.16414,1.16414 2.12258,2.5792 3.49242,3.49242 1.33125,0.8875 3.52522,0.0328 4.65656,1.16414 2.40864,2.40865 -3.68073,-0.0942 1.16414,2.32828 0.34708,0.17354 0.77609,0 1.16414,0 0.77609,0.38805 1.60631,0.68283 2.32827,1.16414 1.34324,0.89549 2.14918,2.59692 3.49242,3.49242 0.4151,2.85972 2.4714,0.48346 3.49242,1.16414 2.8359,1.8906 5.24561,5.24281 8.14897,6.98483 1.05224,0.63134 2.4714,0.48346 3.49242,1.16414 0.32288,0.21525 -0.24241,0.86113 0,1.16414 1.37128,1.7141 3.00456,3.21106 4.65656,4.65656 1.86993,1.63619 4.7095,2.43416 5.82069,4.65655 1.37427,2.74854 1.72141,5.90437 2.77032,8.79277 13.90469,8.77987 22.47714,21.82439 30.98972,35.44452 1.37964,2.20742 1.65175,5.14417 3.49242,6.98484 0.61355,0.61355 1.71472,0.55058 2.32828,1.16414 0.38804,0.38804 0.77609,3.10437 1.16414,3.49241 0.27439,0.27439 0.77609,0 1.16414,0 0.38804,0.38805 0.85973,0.70753 1.16414,1.16414 1.61866,2.42801 1.52738,4.58215 2.32827,6.98484 2.32573,6.97717 -0.29784,-2.92397 3.49242,4.65656 0.34708,0.69415 -0.24542,1.59201 0,2.32827 0.52062,1.56186 2.57919,2.12258 3.49242,3.49242 0.861,1.2915 -0.49085,3.18403 0,4.65656 0.12271,0.36813 0.88975,-0.27439 1.16414,0 0.27439,0.27439 -0.17354,0.81706 0,1.16414 1.42528,2.85056 4.60469,5.10897 5.82069,8.14897 0.28824,0.72059 -0.34707,1.63412 0,2.32828 1.35796,2.71591 4.44101,5.38958 5.8207,8.14897 4.42432,8.84865 0.17198,0.68794 1.16414,4.65656 0.98822,3.95286 3.88778,7.79749 4.65656,11.64139 0.75308,3.7654 1.10957,6.82115 2.32827,10.47726 0.34925,1.04772 -0.34924,2.44469 0,3.49241 0.71553,2.14657 2.13481,4.01056 3.49242,5.8207 0.23283,0.31044 0.94889,-0.32287 1.16414,0 1.81813,2.72719 2.48416,6.28834 3.49242,9.31311 1.06569,3.19707 0.42931,27.13866 0,31.43176 -0.48524,4.85239 -1.54301,8.09395 -2.32828,12.80553 -0.74064,4.44384 -0.60818,34.81972 0,37.25246 0.21045,0.84179 0.99397,1.47743 1.16414,2.32828 1.71369,8.56844 -1.23539,18.12749 0,26.7752 0.0244,0.17083 1.12845,10.33451 1.16414,10.47725 3.61654,14.46615 1.25783,-6.51636 4.65656,10.47725 0.89964,4.49823 -0.75424,9.44427 0,13.96967 0.74071,4.44429 1.9973,9.38728 1.16414,13.96967 -0.57242,3.1483 -1.84171,6.15042 -2.32828,9.31312 -0.80888,5.25768 -0.28435,11.0192 -1.16414,16.29795 -1.41951,8.51706 -3.23417,17.07673 -4.65656,25.61106 -0.6896,4.13758 0.5197,8.64798 0,12.80553 -1.30909,10.47272 -6.65605,19.81719 -8.14897,30.26762 -0.53292,3.73039 0.0508,10.32484 -1.16414,13.96967 -0.61707,1.85122 -2.60802,2.88775 -3.49242,4.65656 -0.52062,1.04124 0.28234,2.36303 0,3.49242 -0.21245,0.84978 -1.86789,3.96597 -2.32828,4.65655 -1.49248,2.23873 -4.32821,3.58197 -5.82069,5.8207 -1.3434,2.0151 -1.01393,4.58145 -3.49242,5.82069 -2.78538,1.3927 -16.86202,4.05649 -17.46209,4.65656 -0.27439,0.27439 0.27439,0.88975 0,1.16414 -0.54878,0.54878 -1.7795,-0.54878 -2.32828,0 -0.27439,0.27439 0.27439,0.88975 0,1.16414 -1.37071,1.37072 -4.23705,0.37232 -5.82069,1.16414 -2.52686,1.26342 -5.05605,2.71918 -8.14898,3.49242 -1.09274,0.27318 -3.93634,-0.72022 -4.65656,0 -0.61355,0.61355 -0.46998,1.80766 -1.16414,2.32827 -2.85217,2.13914 -5.20713,0.42868 -8.14897,1.16414 -2.38094,0.59524 -4.56401,1.92481 -6.98484,2.32828 -7.56349,1.26058 -15.66325,-0.95244 -23.28278,0 -10.1112,1.2639 -18.6589,4.18873 -29.10348,3.49242 -4.71976,-0.31465 -7.13798,-2.32828 -11.64139,-2.32828 -3.66412,0 -9.27065,-1.00997 -12.80553,0 -3.26977,-0.15308 -5.34536,2.55788 -8.14898,3.49242 -5.76413,1.92138 -17.92337,-0.98843 -23.28278,-2.32828 -2.48663,-0.62166 -5.71878,0.81007 -8.14898,0 -0.52061,-0.17354 -0.64352,-0.9906 -1.16413,-1.16414 -1.42526,-0.47508 -3.2005,0.36402 -4.65656,0 -4.85336,-1.21334 -9.29219,-3.48718 -13.96967,-4.65656 -0.75292,-0.18823 -1.59201,0.24543 -2.32828,0 -0.52062,-0.17353 -0.64352,-0.99059 -1.16414,-1.16413 -5.66163,-1.88722 -13.41295,2.18909 -18.62623,3.49241 -2.19132,0.54783 -4.79351,-0.54783 -6.98483,0 -5.1259,1.28148 -10.92572,1.83567 -16.29795,1.16414 -8.1778,-1.02222 -15.35545,-4.23523 -23.28279,-5.82069 -5.73847,-1.1477 -13.08082,1.84846 -18.62622,0 -4.53585,-1.51195 -9.10695,-1.16414 -13.96967,-1.16414 -2.90339,0 -7.86224,0.87167 -10.47726,0 -2.14656,-0.71553 -3.74096,-2.60111 -5.82069,-3.49242 -3.55706,-1.52446 -9.02771,0.94446 -12.80553,0 -1.68358,-0.4209 -2.97298,-1.90738 -4.65656,-2.32828 -3.24563,-0.81141 -7.18736,0.54832 -10.47725,0 -0.85589,-0.14265 -1.48649,-0.95369 -2.32828,-1.16414 -4.31811,-1.07952 -11.0639,0.14666 -15.13381,1.16414 -5.02484,1.25621 -15.5532,2.51447 -20.95451,1.16414 -2.48511,-0.62128 -4.86145,-2.43072 -6.98483,-3.49242 -1.78438,-0.89219 -5.0594,0.48136 -6.98484,0 -0.9875,-0.24687 -7.68472,-3.96018 -8.14897,-4.65655 -2.59877,-3.89815 -1.16682,-5.82874 -2.32828,-9.31312 -0.17354,-0.52062 -0.91872,-0.67329 -1.16414,-1.16414 -1.78684,-3.57367 1.13506,-4.5984 1.16414,-4.65655 0.62087,-1.24175 -0.62087,-3.41481 0,-4.65656 1.19285,-2.3857 1.37339,-2.4786 2.32828,-5.8207 2.36112,-2.44567 0.49864,-5.48699 1.16414,-8.14897 0.1331,-0.5324 0.9906,-0.64352 1.16414,-1.16414 1.38686,-4.1606 1.65891,-10.78292 2.32828,-15.13381 1.1719,-7.6174 2.79095,-14.4026 3.49241,-22.11864 0.31619,-3.47808 -0.68492,-7.05266 0,-10.47726 0.10763,-0.53812 0.89187,-0.68766 1.16414,-1.16414 1.2915,-2.26012 2.4352,-4.60609 3.49242,-6.98483 0.49838,-1.12135 0.42787,-2.51073 1.16414,-3.49242 0.52062,-0.69416 1.80766,-0.46998 2.32828,-1.16414 2.47397,-3.29863 8.94982,-27.2499 10.47725,-32.5959 1.02604,-3.59113 0,-9.1201 0,-12.80553 0,-6.26409 1.45973,-19.77213 0,-25.61106 -1.27276,-5.09104 -1.16414,-9.87257 -1.16414,-15.13381 0,-3.76476 0.54805,-2.19218 1.16414,-4.65656 2.2932,-9.17278 -2.29571,-25.74132 0,-34.92417 0.1331,-0.5324 1.05651,-0.62602 1.16414,-1.16414 1.71636,-8.5818 -1.71636,-18.19341 0,-26.7752 1.96033,-9.80168 0.018,-0.036 2.32828,-4.65656 1.01066,-2.02133 0,-7.78714 0,-10.47725 0,-3.37889 -0.19399,-5.43271 1.16414,-8.14898 0.87446,-1.74893 -1.38764,-7.92547 0,-9.31311 0.27439,-0.27439 0.88975,0.27439 1.16414,0 0.45359,-0.45359 0,-3.94615 0,-4.65656 0,-3.10437 -0.38805,0.38805 1.16414,-1.16414 0.19863,-0.19863 1.60342,-6.98483 1.16413,-6.98483 -1.16468,0 0.729,2.24435 1.38052,3.20976"
       id="path1"
       sodipodi:nodetypes="csssssssssssssssssssssssssssssssssscssssssssssssssssssssssssssssssssssssssssssccsssscssscscsssssscsssscssssssssssssssssssssssscssssssssssssssssssssssssssscssssssssssssssssssssssssssssscsssssssssssssssssssssssssc" /><path
       style="fill:#35f550;fill-opacity:1;stroke:none;stroke-width:12.039;stroke-dasharray:none;stroke-opacity:1"
       d="m 526.00609,623.96341 c 0,0 -9.46646,-105.77744 7.40854,-149.81707 16.875,-44.03963 12.75915,-0.41159 12.75915,-0.41159 0,0 -12.79117,95.64333 -11.93598,154.34451 0.0572,3.92825 -8.23171,-4.11585 -8.23171,-4.11585 z"
       id="path25"
       sodipodi:nodetypes="cscsc" /><path
       style="fill:#000000;fill-opacity:1;stroke:#000000;stroke-width:10.997;stroke-dasharray:none;stroke-opacity:1"
       id="path7"
       d="m 508.04114,371.91851 c -24.9321,0.24391 -49.85504,0.58269 -74.76498,1.48752 -25.40155,1.08962 -50.82512,1.80017 -76.25788,2.20873 5.18864,3.58647 -14.77664,-2.786 -11.80485,-0.73159 2.70419,1.86942 6.11603,3.34654 9.66942,3.75976 1.39624,0.16237 -1.67391,-1.83408 -2.14875,-2.88516 -1.67733,-3.71282 -1.47835,-7.01914 -1.73767,-10.92774 0.15463,-3.23292 0.12479,-6.47467 0.46388,-9.69877 2.75278,-26.17273 9.14676,-52.34653 17.4638,-77.73157 2.61942,-7.99494 5.69896,-15.89113 8.54843,-23.83669 10.41524,-25.40828 21.75701,-51.48029 45.75902,-71.11796 13.10345,-10.72083 17.89424,-11.69249 34.16587,-19.127 6.81641,-2.11579 13.42876,-4.701 20.44922,-6.34735 15.62962,-3.66527 36.79312,-6.04426 52.86981,-5.7657 21.75461,0.37694 48.56631,4.43451 69.48094,8.51227 11.51476,2.24505 22.78771,5.20498 34.18155,7.80747 10.89082,3.81606 22.30106,6.8145 32.67244,11.44815 7.92539,3.54086 15.02311,8.18798 21.87871,12.92387 22.63945,15.63947 36.23063,27.54773 53.06861,47.39558 18.413,21.70441 24.46771,33.9549 38.44923,57.25929 14.53972,26.02459 25.0906,53.36893 30.27385,81.5643 6.3093,34.32086 5.84461,68.12406 5.45236,102.65337 -1.54998,37.64644 -4.67153,75.36538 -12.18297,112.59708 -3.47784,17.23858 -4.90523,20.94056 -9.64882,37.09921 -3.17791,10.4199 -6.74783,20.76408 -11.6768,30.75769 -2.04792,4.15223 -4.13902,7.80973 -7.50108,11.35679 -0.70313,0.46324 -1.32445,1.01766 -2.10941,1.3897 -3.84224,1.82113 -9.78891,2.52947 -13.94101,3.22207 -10.64996,1.77648 -11.72267,1.72201 -23.3206,3.02053 -6.01411,0.44372 -12.01318,1.04205 -18.04234,1.33115 -16.55921,0.79404 -34.38508,0.71893 -50.87053,0.64898 -33.47125,-0.14204 -66.91751,-0.78109 -100.37183,-1.57937 -46.06634,-1.87393 -92.17191,-4.12897 -137.97608,-8.54206 -12.12869,-1.95091 -24.84376,-2.47561 -36.7045,-5.46127 -1.39889,-0.35213 -5.32648,-1.92044 -4.08636,-1.29908 3.36575,1.68641 7.00161,3.00923 10.50241,4.51384 -0.38441,-0.45938 -0.91503,-0.86049 -1.15324,-1.37815 -1.64289,-3.57018 1.71271,-10.88403 2.40175,-14.35402 0.56257,-2.83311 0.92818,-5.68851 1.39228,-8.53274 5.18456,-31.72549 10.59707,-63.4237 16.35583,-95.0874 4.8991,-29.18119 10.92307,-58.23955 15.06968,-87.49695 1.7582,-11.66236 2.62366,-23.3823 2.9542,-35.11831 0.14619,-6.13837 0.0633,-12.27809 0.007,-18.41682 -0.0776,-6.13556 -0.0404,-12.27132 -0.003,-18.40695 0.005,-0.7907 0.009,-1.5814 0.0139,-2.37211 0,0 -13.47717,-5.43055 -13.47717,-5.43055 v 0 c 0.005,0.79486 0.0108,1.58971 0.0162,2.38457 0.047,6.14774 0.10035,12.29546 0.081,18.44336 0.0115,6.15028 0.0784,12.30008 0.12971,18.4502 -0.036,11.8247 -0.61203,23.64489 -1.91931,35.42746 -3.42412,29.45288 -8.81911,58.72623 -13.61083,88.05334 -5.84971,31.47544 -11.8794,62.93203 -18.07561,94.36559 -0.58883,2.76256 -1.08337,5.53874 -1.76648,8.28769 -1.33758,5.38266 -5.12974,11.37768 -2.503,16.80569 5.11912,2.3826 10.12483,4.92464 15.35733,7.14783 2.03183,0.86327 7.89207,1.82468 9.70654,2.10653 9.96422,1.54786 20.05694,2.58116 30.10231,3.71916 45.24251,3.82973 90.70996,5.76426 136.15348,7.37584 48.68092,1.03599 17.45773,0.4254 67.29111,1.26339 28.50006,0.47926 57.11132,1.47789 85.61549,0.48681 6.21811,-0.2162 12.41553,-0.7131 18.62329,-1.06966 11.68186,-1.15678 13.23441,-1.16332 24.05604,-2.73025 5.95755,-0.86263 12.69929,-1.45919 17.03761,-5.13701 3.18344,-3.79257 5.12717,-7.63138 6.98403,-11.96485 4.40516,-10.2806 7.54206,-20.84686 10.37535,-31.45988 3.96829,-15.38917 5.78996,-21.40278 8.70653,-37.58735 6.76472,-37.5387 9.2917,-75.49404 10.59117,-113.36271 0.39614,-34.10481 1.28261,-68.54088 -4.48496,-102.45269 -4.82998,-28.39903 -15.5961,-55.87283 -30.57357,-81.90449 -13.66387,-22.6145 -20.76082,-36.34057 -38.46274,-57.44357 -25.64908,-30.57704 -51.93959,-50.53151 -92.60448,-68.73609 -10.38546,-4.64928 -21.85787,-7.58154 -32.7868,-11.37231 -11.37769,-2.56567 -22.64125,-5.47214 -34.13306,-7.69699 -20.92304,-4.05076 -48.72477,-8.29956 -70.46648,-8.78897 -16.27224,-0.36629 -37.98565,1.90196 -53.84226,5.58995 -7.08683,1.64828 -13.73985,4.29437 -20.60978,6.44155 -16.68424,7.63347 -21.1026,8.35334 -34.36293,19.46469 -23.84609,19.98158 -34.57728,46.36252 -44.90851,71.93806 -12.97265,36.17363 -25.25934,72.81716 -29.45705,110.3887 0.0579,2.57856 -0.35322,12.61036 2.89626,14.59664 13.02563,7.9621 14.70393,8.12486 27.72104,8.01704 25.18848,-0.72286 50.36107,-1.75227 75.54071,-2.6407 25.34267,-0.89122 50.70664,-1.31174 76.07014,-0.67799 z" /><circle
       id="path15"
       style="fill:#000000;stroke:#000000"
       cx="491.26675"
       cy="267.75201"
       r="14.111198" /><circle
       id="path16"
       style="fill:#000000;stroke:#000000"
       cx="614.66553"
       cy="274.73685"
       r="14.111198" /><path
       style="fill:#000000;fill-opacity:1;stroke:#000000;stroke-width:12.039;stroke-dasharray:none;stroke-opacity:1"
       id="path17"
       d="m 536.68419,690.35109 c 3.86561,46.35205 4.1047,92.9295 4.28503,139.41666 0.0268,1.46794 0.45846,21.30871 0.29275,24.543 -0.16378,3.19654 -0.39958,7.68798 -2.91294,10.29993 -2.01437,2.09338 -3.94128,1.16753 -6.37365,0.84515 -19.59981,-7.33361 -39.01354,-15.12344 -58.73414,-22.13473 -11.62194,-3.86608 -6.14444,-2.1804 -16.40477,-5.1463 0,0 11.2094,8.62836 11.2094,8.62836 v 0 c 9.90379,2.76648 4.59072,1.17593 15.90864,4.87256 20.09119,7.07365 39.68073,15.45253 59.79724,22.40763 1.38046,-0.0572 2.8239,0.24466 4.1414,-0.17147 5.48326,-1.73189 5.57418,-8.96335 5.59692,-13.40759 0.0427,-8.34358 -1.26501,-16.66172 -1.21622,-25.0015 -1.43517,-46.25437 -2.87041,-92.52024 -2.86629,-138.80151 z" /><path
       style="fill:#000000;fill-opacity:1;stroke:#000000;stroke-width:12.039;stroke-dasharray:none;stroke-opacity:1"
       id="path18"
       d="m 633.64111,692.11705 c 0.78814,29.28274 -0.10146,58.59906 -1.39647,87.8572 -0.60598,12.54623 -1.27765,25.08909 -1.94893,37.63193 -0.33529,6.26489 -0.45189,12.43769 -1.48474,18.62455 -0.62549,0.78099 -1.0446,1.78693 -1.87646,2.34297 -7.15625,4.78351 -24.30699,-4.19895 -30.80275,-7.06276 -2.41485,-1.26152 -4.82971,-2.52303 -7.24456,-3.78455 0,0 10.94545,8.77553 10.94545,8.77553 v 0 c 2.40781,1.21799 4.81563,2.43598 7.22344,3.65397 7.32141,3.15854 24.82576,12.23003 32.50409,5.89027 0.94528,-0.78049 1.37627,-2.02899 2.0644,-3.04348 0.8605,-6.37151 0.75814,-12.67442 0.903,-19.10394 0.28603,-12.6952 0.67759,-25.38764 1.08053,-38.07957 0.94,-28.98583 1.74949,-57.97967 3.30391,-86.94026 z" /><path
       style="fill:#000000;fill-opacity:1;stroke:#000000;stroke-width:12.039;stroke-dasharray:none;stroke-opacity:1"
       id="path20"
       d="m 413.65231,422.07711 c -15.01847,3.25633 -29.30922,9.35051 -43.23534,15.71766 -13.40593,6.88471 -27.07234,14.30364 -37.89988,25.0103 -5.71303,5.64925 -7.29578,8.58133 -11.73004,15.04511 -1.19048,2.49909 -2.7366,4.858 -3.57144,7.49727 -3.61411,11.42555 2.1599,23.54386 9.88771,31.8525 2.69711,2.89983 5.85123,5.33824 8.77684,8.00736 26.86284,20.62994 57.35311,35.68992 89.16105,46.94481 23.08255,8.28019 47.26584,11.30664 71.58244,12.95259 3.70658,0.18963 7.41315,0.37927 11.11973,0.5689 0,0 -10.9926,-8.06882 -10.9926,-8.06882 v 0 c -3.6639,-0.17021 -7.3278,-0.34042 -10.9917,-0.51064 -24.19308,-1.76039 -48.23076,-4.87541 -71.20221,-13.11867 -11.85277,-4.20213 -14.74297,-4.96417 -26.51898,-10.27282 -4.80888,-2.16785 -9.48121,-4.62732 -14.25081,-6.88028 -0.66478,-0.31401 -1.41642,-0.44243 -2.04809,-0.81864 -11.72756,-6.98466 -12.36499,-7.79732 -23.31229,-15.67479 -2.86547,-2.55586 -5.9364,-4.89853 -8.59642,-7.66757 -7.50832,-7.81606 -13.68174,-19.33425 -10.41222,-30.4095 0.7638,-2.58732 2.24263,-4.90724 3.36395,-7.36087 4.43573,-6.62935 5.59409,-9.03313 11.39584,-14.82354 10.6834,-10.66253 24.15691,-18.11472 37.53721,-24.77181 14.15891,-6.25055 28.75949,-12.20758 44.12739,-14.66587 z" /><path
       style="fill:#000000;fill-opacity:1;stroke:#000000;stroke-width:12.039;stroke-dasharray:none;stroke-opacity:1"
       id="path21"
       d="m 750.71472,440.74656 c 6.45345,11.9838 12.8247,24.01858 18.43678,36.42303 4.94837,10.96942 7.47545,22.61227 8.6111,34.52373 0.53224,8.99876 0.88139,18.05257 0.24506,27.05225 -0.68512,10.91 -7.15698,19.17786 -13.49599,27.53966 -5.70737,7.17675 -12.36379,13.41946 -20.10833,18.31241 -6.38889,3.6355 -12.84695,6.66546 -19.94196,8.61353 -12.16075,2.80853 -24.46631,5.00997 -36.85383,6.53601 -9.9928,0.75507 -19.96592,1.61645 -29.95035,2.49095 -12.003,0.96079 -24.04958,1.11095 -36.08443,1.19422 -10.22396,0.0458 -20.44806,0.02 -30.67206,0.007 -9.85937,-0.31776 -19.33777,-3.24982 -28.77927,-5.82821 -4.25422,-1.87744 -8.97163,-2.73324 -13.15071,-4.78964 -0.78309,-0.38533 -3.01734,-1.75437 -2.24757,-1.34308 3.63154,1.94033 7.2233,3.95421 10.83495,5.93132 -5.22725,-4.79779 -12.29973,-6.28852 -18.8905,-10.1375 l 12.94589,8.47883 v 0 c -20.37431,-11.96957 -11.55174,-9.34748 -7.79004,-3.87814 11.76815,7.25341 17.28297,11.16851 29.78837,14.5632 9.49886,2.58683 19.0889,5.35367 29.00761,5.51843 10.17654,-10e-4 20.3534,-0.004 30.52932,-0.13053 12.09361,-0.17483 24.20426,-0.21641 36.26668,-1.19959 9.97121,-0.88103 19.94925,-1.62382 29.91009,-2.59217 12.44264,-1.69276 24.80427,-3.96321 37.07443,-6.62879 7.23359,-2.00446 13.87373,-5.02183 20.30892,-8.89732 7.78073,-5.08189 14.33379,-11.64452 20.12255,-18.90242 6.472,-8.56543 13.23425,-17.0215 14.09743,-28.15862 0.64716,-9.07886 0.30858,-18.23534 -0.21861,-27.3129 -1.21574,-12.11112 -3.68874,-23.94729 -8.75462,-35.10643 -5.49306,-12.27576 -11.97641,-24.03452 -17.61837,-36.24144 z"
       sodipodi:nodetypes="ccccccccccccsscccscccccccccccccc" /><path
       style="fill:#f55135;fill-opacity:1;stroke:none;stroke-width:13.0271;stroke-dasharray:none;stroke-opacity:1"
       d="m 537.32544,465.99625 c 0,0 -47.14539,32.92643 -24.38404,50.39623 22.76136,17.46981 35.70006,-43.27954 35.70006,-43.27954 0,0 -4.84776,53.74319 16.068,54.80261 20.91577,1.05941 12.80261,-42.956 -2.93322,-58.11084"
       id="path24" /><path
       style="fill:#f55135;fill-opacity:1;stroke:none;stroke-width:13.0271;stroke-dasharray:none;stroke-opacity:1"
       d="m 524.99563,437.78719 c 0,0 -45.48495,-35.18462 -55.37417,-8.24996 -9.88923,26.93467 51.95491,21.17311 51.95491,21.17311 0,0 -52.74438,11.39572 -47.51977,31.67613 5.22459,20.28042 44.81941,-0.58655 54.59355,-20.12501"
       id="path24-5" /><path
       style="fill:#f55135;fill-opacity:1;stroke:none;stroke-width:13.0271;stroke-dasharray:none;stroke-opacity:1"
       d="m 534.60604,442.66204 c 0,0 -37.92781,-43.22405 -11.65565,-54.75862 26.27218,-11.53458 24.34285,50.54739 24.34285,50.54739 0,0 8.11497,-53.34772 28.67945,-49.38618 20.56449,3.96153 2.18387,44.77002 -16.71333,55.73273"
       id="path24-5-2" /><path
       style="fill:#f55135;fill-opacity:1;stroke:none;stroke-width:13.0271;stroke-dasharray:none;stroke-opacity:1"
       d="m 566.56205,442.36781 c 0,0 41.3647,-39.94745 54.13996,-14.25571 12.77527,25.69176 -49.32804,26.72747 -49.32804,26.72747 0,0 53.67422,5.55972 50.69863,26.28983 -2.97558,20.73012 -44.61478,4.31802 -56.46686,-14.03446"
       id="path24-5-2-1" /><ellipse
       style="fill:#f5e835;fill-opacity:1;stroke:none;stroke-width:15.775;stroke-dasharray:none;stroke-opacity:1"
       id="path23"
       cx="544.37994"
       cy="452.19559"
       rx="28.205694"
       ry="24.077744" /></g></svg>
