<?xml version="1.0" encoding="UTF-8" standalone="no"?>
<!-- Created with Inkscape (http://www.inkscape.org/) -->

<svg
   width="1080"
   height="1080"
   viewBox="0 0 1080 1080"
   version="1.1"
   id="svg1"
   xml:space="preserve"
   inkscape:version="1.3.2 (091e20e, 2023-11-25, custom)"
   sodipodi:docname="cmsc.svg"
   xmlns:inkscape="http://www.inkscape.org/namespaces/inkscape"
   xmlns:sodipodi="http://sodipodi.sourceforge.net/DTD/sodipodi-0.dtd"
   xmlns="http://www.w3.org/2000/svg"
   xmlns:svg="http://www.w3.org/2000/svg"><sodipodi:namedview
     id="namedview1"
     pagecolor="#ffffff"
     bordercolor="#000000"
     borderopacity="0.25"
     inkscape:showpageshadow="2"
     inkscape:pageopacity="0.0"
     inkscape:pagecheckerboard="0"
     inkscape:deskcolor="#d1d1d1"
     inkscape:document-units="px"
     inkscape:zoom="0.60740741"
     inkscape:cx="540"
     inkscape:cy="540.82317"
     inkscape:window-width="1920"
     inkscape:window-height="974"
     inkscape:window-x="-11"
     inkscape:window-y="-11"
     inkscape:window-maximized="1"
     inkscape:current-layer="layer1" /><defs
     id="defs1" /><g
     inkscape:label="Layer 1"
     inkscape:groupmode="layer"
     id="layer1"><g
       style="fill:#ff9e01;fill-opacity:1"
       id="g1"
       transform="matrix(1.4807098,0,0,1.4807098,218.68597,180.92794)"><path
         d="m 312.96,122.39 c -0.762,0.091 -1.525,0.182 -2.294,0.273 -0.685,12.711 -1.426,25.43 -1.951,38.156 -0.048,1.027 1.378,2.11 2.119,3.165 0.986,-0.81 2.231,-1.453 2.881,-2.473 0.608,-0.951 0.811,-2.293 0.832,-3.474 0.133,-10.258 0.266,-20.524 0.175,-30.783 -0.014,-1.628 -1.147,-3.243 -1.762,-4.864 z m 13.243,264.864 c -0.469,0.09 -0.937,0.181 -1.406,0.272 -0.168,1.684 -0.405,3.362 -0.489,5.046 -0.93,18.274 -1.755,36.549 -2.776,54.816 -0.615,10.979 0.566,12.243 11.628,11.265 6.433,-0.566 8.034,-2.516 6.733,-9.099 -3.706,-18.728 -7.537,-37.429 -11.411,-56.123 -0.44,-2.124 -1.51,-4.123 -2.279,-6.177 z m 2.111,-161.961 c -0.979,0.098 -1.957,0.202 -2.943,0.307 -0.756,4.717 -2.105,9.428 -2.175,14.159 -0.259,17.89 -0.049,35.794 -0.14,53.698 -0.028,5.318 1.86,9.42 6.657,11.873 1.692,0.859 3.629,1.258 5.447,1.866 0.482,-1.81 1.447,-3.655 1.363,-5.437 -0.825,-17.038 -1.405,-34.096 -2.958,-51.071 -0.79,-8.553 -3.44,-16.932 -5.251,-25.395 z m 41.862,149.48 c -0.804,-0.028 -1.608,-0.056 -2.412,-0.084 -0.434,1.628 -1.147,3.235 -1.266,4.891 -1.566,21.406 -3.202,42.811 -4.489,64.237 -0.804,13.369 -0.545,13.382 12.824,14.99 8.761,1.048 9.726,0.035 8.306,-8.407 -2.755,-16.437 -5.397,-32.887 -8.187,-49.317 -1.49,-8.784 -3.175,-17.54 -4.776,-26.31 z m -71.187,-214.36 c 1.245,-0.237 2.49,-0.475 3.734,-0.719 0,-8.156 -0.419,-16.339 0.098,-24.459 0.909,-14.229 2.147,-28.45 3.79,-42.615 0.496,-4.3258 1.363,-10.0212 7.824,-9.581 6.16,0.4124 6.167,5.9611 7.258,10.3637 0.091,0.3913 0.126,0.7966 0.126,1.202 0.132,18.0853 0.272,36.1783 0.37,54.2713 0.035,6.031 -0.552,12.138 0.245,18.065 0.273,1.984 3.964,3.501 6.09,5.241 1.077,-1.524 3.105,-3.061 3.091,-4.578 -0.224,-33.215 -0.672,-66.437 -1.084,-99.6527 -0.049,-4.3817 -2.259,-7.191 -6.356,-8.5257 -6.496,-2.1245 -12.991,-4.2699 -19.536,-6.2406 -6.384,-1.9218 -8.062,-0.8246 -8.09,6.0309 -0.119,31.4264 -0.119,62.8531 0.035,94.2721 0.014,2.313 1.566,4.619 2.405,6.925 z m 69.81,162.751 c -0.581,-3.746 -0.881,-5.262 -1.049,-6.793 -1.923,-16.939 -5,-33.851 -5.44,-50.833 -0.531,-20.266 1.147,-40.595 1.979,-60.889 0.349,-8.441 -0.483,-9.93 -8.412,-13.04 -17.228,-6.757 -34.443,-13.536 -51.685,-20.252 -7.097,-2.76 -8.034,-1.964 -7.496,5.486 1.587,21.866 3.16,43.733 4.608,65.613 0.986,15.053 1.678,30.127 2.643,45.179 0.259,3.963 2.035,7.387 6.621,6.975 4.734,-0.427 3,-4.592 2.958,-7.212 -0.224,-14.068 -1.294,-28.156 -0.944,-42.209 0.28,-11.419 1.776,-22.845 3.44,-34.166 1.14,-7.708 6.957,-10.119 13.942,-6.604 6.167,3.11 10.104,8.113 11.097,14.899 1.51,10.343 3.034,20.727 3.706,31.147 1.181,18.463 1.594,36.975 2.65,55.445 0.182,3.193 0.986,7.736 3.139,9.148 5.042,3.298 11.069,5.066 18.243,8.106 z m -17.327,129.933 c 0.741,-0.104 1.482,-0.209 2.224,-0.307 -0.497,-9.225 -1.804,-18.484 -1.329,-27.653 1.035,-19.84 2.531,-39.679 4.769,-59.421 1,-8.806 6.943,-11.405 15.005,-8.107 8.74,3.578 14.005,10.133 14.893,19.588 1.447,15.438 2.552,30.903 3.811,46.354 0.853,10.433 1.587,20.881 2.727,31.279 0.188,1.734 2.174,3.271 3.335,4.892 0.867,-1.481 2.454,-2.956 2.468,-4.451 0.056,-5.423 -0.203,-10.874 -0.727,-16.276 -2.895,-29.875 -5.076,-59.778 -3.552,-89.828 0.531,-10.44 -0.308,-11.411 -10.32,-14.151 -31.003,-8.498 -61.021,-19.323 -87.744,-37.765 -1.867,-1.286 -3.566,-2.83 -6.007,-4.801 6.79,-2.432 7.454,-6.569 6.965,-12.327 -2.476,-29.078 -4.168,-58.226 -6.657,-87.305 -1.349,-15.709 -2.566,-31.594 -5.943,-46.933 -5.971,-27.087 -13.201,-53.9149 -20.585,-80.6591 -4.321,-15.6538 -9.551,-31.091 -15.187,-46.3324 -3.041,-8.2253 -8.041,-9.49717 -15.187,-4.3258 -4.95,3.585 -9.6,8.0994 -13.089,13.103 -9.817,14.1094 -17.061,29.5605 -22.039,46.0809 -4.069,13.5083 -6.069,26.7934 -2.049,40.8884 2.51,8.812 3,18.233 3.958,27.429 0.168,1.621 -1.804,3.466 -2.79,5.206 -1.301,-1.271 -2.727,-2.438 -3.846,-3.843 -0.573,-0.734 -0.587,-1.901 -0.874,-2.865 -3.775,-12.502 -7.404,-25.053 -11.488,-37.458 -0.671,-2.047 -3.328,-3.4448 -5.069,-5.143 -1.329,1.803 -3.167,3.424 -3.895,5.444 -10.984,30.252 -16.928,61.63 -20.507,93.503 -1.413,12.6 -2.511,25.235 -3.594,37.87 -0.742,8.575 1.314,9.658 9.907,8.798 4.419,-0.44 9.992,0.692 13.53,3.229 12.278,8.791 19.606,21.188 21.983,36.122 0.357,2.251 -2.111,4.948 -3.272,7.443 -1.902,-1.614 -4.433,-2.865 -5.594,-4.892 -5.174,-9.043 -9.824,-18.386 -15.012,-27.422 -1.042,-1.817 -4.503,-4.284 -5.3,-3.816 -2.37,1.384 -4.789,3.823 -5.628,6.36 -0.79,2.39 0.035,5.527 0.797,8.155 1.622,5.591 3.664,11.063 5.53,16.583 1.196,3.536 1.392,7.051 -2.524,8.847 -4.496,2.062 -5.586,-2.173 -6.803,-4.801 -5.013,-10.741 -9.705,-21.628 -14.523,-32.467 -3.097,-6.981 -4.503,-7.142 -9.362,-1.461 -8.838,10.322 -13.984,22.489 -17.921,35.27 -7.579,24.585 -10.914,49.953 -12.397,75.474 -1.664,28.519 -2.118,57.115 -3.0903,85.669 -0.1818,5.186 2.2723,7.394 7.4463,6.786 2.993,-0.349 6.034,-0.755 9.034,-0.615 15.942,0.741 31.688,3.718 47.917,0.734 8.656,-1.593 18.026,1.216 27.066,1.139 38.681,-0.329 77.361,-1.041 116.048,-1.461 5.077,-0.049 6.832,-2.285 6.65,-7.009 -0.259,-6.841 -0.441,-13.683 -0.518,-20.532 -0.265,-24.354 -0.559,-48.715 -0.643,-73.076 -0.021,-6.394 2.741,-8.687 9.02,-8.589 10.887,0.182 16.788,5.416 18.319,16.891 3.035,22.733 5.818,45.508 8.782,68.255 0.811,6.254 1.916,12.467 2.881,18.7 z M 186.605,83.1788 c 0.35,-2.5437 0.721,-4.8289 0.972,-7.1211 1.979,-18.2185 6.566,-35.7521 16.404,-51.2871 4.314,-6.8206 10.117,-13.2568 16.599,-18.03677 15.564,-11.48877 34.142,-8.09943 43.491,8.81227 5.705,10.3287 8.439,22.4254 11.663,33.9631 2.81,10.0491 4.426,20.4338 6.614,30.6577 0.266,1.2718 0.79,2.4878 2.224,3.55 0,-8.5047 -0.287,-17.0235 0.063,-25.5143 0.524,-12.7956 1.377,-25.5771 2.37,-38.3448 0.168,-2.1733 1.79,-4.2349 2.734,-6.3523 2.44,1.167 5.244,1.9078 7.244,3.599 4.076,3.4173 4.006,8.3021 2.636,12.8444 -1.839,6.1008 -0.028,9.3015 6.076,11.2372 4.936,1.5654 9.439,4.4376 14.194,6.6039 5.111,2.3202 8.237,0.636 8.901,-4.9477 0.356,-2.991 0.175,-6.0379 0.147,-9.0638 -0.042,-4.2908 2.286,-5.6396 6.209,-5.2342 8.292,0.8595 15.165,8.8192 14.648,17.8481 -0.762,13.2568 -2.503,26.4717 -2.972,39.7355 -0.992,27.9391 -1.58,55.8921 -1.992,83.8451 -0.119,8.156 8.502,15.906 16.669,15.542 1.272,-0.055 3.202,-2.299 3.503,-3.801 0.615,-3.117 0.35,-6.408 0.433,-9.63 0.245,-8.931 2.629,-12.495 8.195,-12.237 8.419,0.399 14.739,6.555 13.984,14.236 -1.377,14.018 -3.188,28.002 -4.677,42.013 -3.545,33.446 -6.468,66.92 -4.217,100.611 0.574,8.518 5.678,12.306 13.859,9.567 1.902,-0.636 3.587,-3.984 4.083,-6.346 0.895,-4.29 0.49,-8.84 1.21,-13.18 1.279,-7.708 3.936,-9.762 10.733,-9.105 7.348,0.705 11.544,4.563 11.166,11.572 -0.608,11.447 -1.853,22.852 -2.867,34.278 -2.419,27.254 -5.118,54.488 -7.139,81.77 -0.664,8.98 0.301,18.1 0.686,27.157 0.209,4.996 2.657,8.42 7.243,10.929 4.895,2.684 9.398,6.164 13.782,9.651 1.335,1.062 1.713,3.319 2.524,5.025 -1.706,0.712 -3.426,2.054 -5.125,2.04 -24.319,-0.244 -48.644,-0.992 -72.956,-0.901 -12.865,0.049 -25.717,1.614 -38.582,2.243 -3.119,0.154 -6.608,0.035 -9.377,-1.195 -9.691,-4.312 -19.557,-4.731 -29.541,-2.034 -15.796,4.263 -31.36,4.158 -47.057,-0.601 -13.537,-4.109 -27.13,-3.291 -40.352,1.629 -12.956,4.822 -25.087,5.402 -36.037,-4.892 -1.301,-1.216 -4.636,-1.447 -6.475,-0.72 -8.565,3.389 -16.816,7.596 -25.444,10.804 -2.874,1.069 -6.628,0.517 -9.803,-0.14 -6.013,-1.251 -11.817,-3.634 -17.8577,-4.626 C 80.1086,477.116 64.7049,475.306 49.4062,472.846 35.7436,470.645 22.158,467.968 8.54435,465.446 7.18089,465.194 5.63562,464.88 4.5938,464.055 2.88073,462.699 1.51729,460.91 0,459.303 c 1.89486,-1.104 3.76175,-3.117 5.68458,-3.166 10.67692,-0.279 21.36092,-0.174 32.04482,-0.021 14.5016,0.203 29.0033,0.503 43.5049,0.909 4.447,0.126 5.7265,-1.845 5.0273,-5.94 -6.4327,-37.667 -4.8385,-75.53 -1.2656,-113.225 3.1185,-32.782 10.1526,-64.795 27.143,-93.776 5.272,-8.98 12.404,-14.752 23.144,-14.976 4.461,-0.083 4.979,-2.746 5.349,-6.324 2.65,-25.822 4.65,-51.748 8.51,-77.388 2.594,-17.227 7.236,-34.243 12.194,-50.98 4.251,-14.319 8.006,-15.6329 22.277,-11.7404 0.734,0.2027 1.51,0.2586 2.992,0.5032 z"
         fill="#000000"
         id="path1"
         style="fill:#ff9e01;fill-opacity:1" /><path
         d="m 212.076,198.133 c 0,9.622 -0.23,19.25 0.09,28.864 0.187,5.666 -2.73,6.784 -7.404,6.791 -4.689,0.007 -8.509,-0.699 -8.509,-6.645 0.021,-16.503 0.014,-33.02 0,-49.53 0,-4.661 2.146,-7.155 6.904,-7.127 0.396,0 0.799,-0.007 1.202,-0.007 18.281,0.161 16.454,-2.138 21.17,16 1.723,6.596 3.869,13.08 6.321,21.283 1.702,-4.039 3.049,-6.631 3.904,-9.377 2.257,-7.287 4.32,-14.638 6.424,-21.967 1.146,-3.976 3.543,-6.002 7.835,-5.967 20.15,0.168 17.191,-1.935 17.337,16.657 0.097,13.289 -0.202,26.585 0.111,39.861 0.139,6.162 -3.154,6.882 -7.946,6.826 -4.848,-0.049 -8.314,-1.062 -7.842,-7.085 0.514,-6.609 0.813,-13.247 1.021,-19.878 0.07,-2.459 -0.389,-4.94 -0.611,-7.413 -0.556,-0.119 -1.111,-0.23 -1.667,-0.342 -0.771,1.635 -1.75,3.207 -2.285,4.919 -2.341,7.476 -4.82,14.924 -6.717,22.519 -1.403,5.596 -4.764,7.273 -10.036,7.294 -5.3,0.021 -8.016,-2.452 -9.314,-7.455 -2.008,-7.777 -4.321,-15.476 -6.55,-23.19 -0.528,-1.83 -1.223,-3.605 -1.841,-5.408 -0.535,0.126 -1.063,0.252 -1.597,0.377 z"
         fill="#000000"
         id="path2"
         style="fill:#ff9e01;fill-opacity:1" /><path
         d="m 228.638,339.22 c -3.404,-0.356 -7.351,-0.203 -10.887,-1.339 -2.235,-0.712 -4.984,-3.055 -5.541,-5.175 -2.137,-8.187 0.236,-10.189 8.485,-8.529 3.474,0.698 7.184,1.144 10.644,0.677 1.865,-0.258 4.267,-2.434 4.837,-4.24 0.39,-1.249 -1.587,-3.997 -3.174,-4.945 -3.404,-2.036 -7.17,-3.55 -10.922,-4.91 -7.643,-2.761 -10.678,-8.529 -11.193,-16.158 -0.529,-7.832 2.757,-13.648 9.488,-17.379 8.847,-4.909 18.245,-4.219 27.412,-1.395 5.52,1.702 2.861,6.681 2.576,10.378 -0.299,3.863 -3.035,3.249 -5.819,2.873 -3.544,-0.474 -7.219,-0.942 -10.706,-0.46 -1.859,0.258 -3.446,2.51 -5.159,3.856 1.26,1.576 2.214,3.745 3.85,4.617 3.327,1.764 7.128,2.615 10.553,4.219 8.889,4.17 11.458,10.035 9.968,22.051 -0.94,7.623 -6.78,13.536 -15.043,14.98 -2.944,0.509 -5.965,0.579 -9.369,0.879 z"
         fill="#000000"
         id="path3"
         style="fill:#ff9e01;fill-opacity:1" /><path
         d="m 241.768,443.488 c -11.336,0.294 -22.854,-2.426 -29.415,-14.275 -6.968,-12.59 -6.357,-25.76 1.034,-37.994 7.355,-12.157 29.386,-17.148 41.516,-10.045 4.887,2.866 3.713,7.298 1.997,11.164 -0.534,1.202 -3.902,2.195 -5.527,1.726 -10.154,-2.894 -17.502,-1.803 -21.834,3.803 -4.88,6.306 -5.682,17.644 -1.687,24.055 3.881,6.243 12.326,9.165 21.679,7.179 3.994,-0.846 8.051,-3.09 8.811,3.733 0.724,6.432 -1.048,9.137 -7.377,9.927 -2.608,0.322 -5.245,0.426 -9.197,0.727 z"
         fill="#000000"
         id="path4"
         style="fill:#ff9e01;fill-opacity:1" /><path
         d="m 243.209,131.141 c -14.297,0.795 -27.114,-6.186 -32.358,-17.429 -5.392,-11.549 -2.805,-29.047 5.602,-37.946 8.939,-9.4848 24.351,-12.7975 36.88,-7.9505 4.831,1.8691 6.724,10.4822 2.588,13.3904 -1.431,1.0043 -4.495,0.3138 -6.584,-0.3348 -13.673,-4.2193 -24.548,3.6196 -24.498,17.8189 0.056,13.425 12.15,22.003 25.073,17.798 2.818,-0.914 6.03,-3.794 7.782,1.416 1.88,5.572 0.414,9.854 -4.08,11.57 -0.94,0.356 -1.928,0.669 -2.917,0.802 -2.594,0.363 -5.21,0.607 -7.488,0.865 z"
         fill="#000000"
         id="path5"
         style="fill:#ff9e01;fill-opacity:1" /></g></g></svg>
