<?xml version="1.0" encoding="UTF-8" standalone="no"?>
<!-- Created with Inkscape (http://www.inkscape.org/) -->

<svg
   width="1080"
   height="1080"
   viewBox="0 0 1080 1080"
   version="1.1"
   id="svg1"
   xml:space="preserve"
   inkscape:version="1.3.2 (091e20e, 2023-11-25, custom)"
   sodipodi:docname="portfolio.svg"
   xmlns:inkscape="http://www.inkscape.org/namespaces/inkscape"
   xmlns:sodipodi="http://sodipodi.sourceforge.net/DTD/sodipodi-0.dtd"
   xmlns="http://www.w3.org/2000/svg"
   xmlns:svg="http://www.w3.org/2000/svg"><sodipodi:namedview
     id="namedview1"
     pagecolor="#ffffff"
     bordercolor="#000000"
     borderopacity="0.25"
     inkscape:showpageshadow="2"
     inkscape:pageopacity="0.0"
     inkscape:pagecheckerboard="0"
     inkscape:deskcolor="#d1d1d1"
     inkscape:document-units="px"
     inkscape:zoom="0.4295019"
     inkscape:cx="495.9233"
     inkscape:cy="310.82517"
     inkscape:window-width="1920"
     inkscape:window-height="974"
     inkscape:window-x="-11"
     inkscape:window-y="-11"
     inkscape:window-maximized="1"
     inkscape:current-layer="layer1" /><defs
     id="defs1"><inkscape:path-effect
       effect="powermask"
       id="path-effect27"
       is_visible="true"
       lpeversion="1"
       uri="#mask-powermask-path-effect27"
       invert="false"
       hide_mask="false"
       background="true"
       background_color="#ffffffff" /><filter
       id="mask-powermask-path-effect27_inverse"
       inkscape:label="filtermask-powermask-path-effect27"
       style="color-interpolation-filters:sRGB"
       height="100"
       width="100"
       x="-50"
       y="-50"><feColorMatrix
         id="mask-powermask-path-effect27_primitive1"
         values="1"
         type="saturate"
         result="fbSourceGraphic" /><feColorMatrix
         id="mask-powermask-path-effect27_primitive2"
         values="-1 0 0 0 1 0 -1 0 0 1 0 0 -1 0 1 0 0 0 1 0 "
         in="fbSourceGraphic" /></filter><mask
       maskUnits="userSpaceOnUse"
       id="mask-powermask-path-effect27"><path
         id="mask-powermask-path-effect27_box"
         style="fill:#ffffff;fill-opacity:1"
         d="M 45.097561,35.219513 H 1011.8537 V 949.29269 H 45.097561 Z" /></mask></defs><g
     inkscape:label="Layer 1"
     inkscape:groupmode="layer"
     id="layer1"><path
       style="fill:#35f550;fill-opacity:1;stroke:none;stroke-width:12.039;stroke-dasharray:none;stroke-opacity:1"
       id="rect27"
       width="964.7561"
       height="912.07318"
       x="46.097561"
       y="36.219513"
       mask="url(#mask-powermask-path-effect27)"
       sodipodi:type="rect"
       d="M 46.097561,36.219513 H 1010.8537 V 948.29269 H 46.097561 Z"
       inkscape:path-effect="#path-effect27" /><path
       style="fill:#35f550;fill-opacity:1;stroke:none;stroke-width:12.039;stroke-dasharray:none;stroke-opacity:1"
       d="m 526.00609,623.96341 c 0,0 -9.46646,-105.77744 7.40854,-149.81707 16.875,-44.03963 12.75915,-0.41159 12.75915,-0.41159 0,0 -12.79117,95.64333 -11.93598,154.34451 0.0572,3.92825 -8.23171,-4.11585 -8.23171,-4.11585 z"
       id="path25"
       sodipodi:nodetypes="cscsc" /><path
       style="fill:#000000;fill-opacity:1;stroke:#000000;stroke-width:10.997;stroke-dasharray:none;stroke-opacity:1"
       id="path7-1"
       d="m 311.48172,195.61553 c -24.9321,0.24391 -49.85504,0.58269 -74.76498,1.48752 -25.40155,1.08962 -50.82512,1.80017 -76.25788,2.20873 5.18864,3.58647 -14.77664,-2.786 -11.80485,-0.73159 2.70419,1.86942 6.11603,3.34654 9.66942,3.75976 1.39624,0.16237 -1.67391,-1.83408 -2.14875,-2.88516 -1.67733,-3.71282 -1.47835,-7.01914 -1.73767,-10.92774 0.15463,-3.23292 0.12479,-6.47467 0.46388,-9.69877 2.75278,-26.17273 9.14676,-52.34653 17.4638,-77.73157 2.61942,-7.99494 5.69896,-15.89113 8.54843,-23.83669 10.41524,-25.40828 21.75701,-51.48029 45.75902,-71.11796 13.10345,-10.72083 17.89424,-11.69249 34.16587,-19.127 6.81641,-2.11579 13.42876,-4.701 20.44922,-6.34735 15.62962,-3.66527 36.79312,-6.04426 52.86981,-5.7657 21.75461,0.37694 48.56631,4.43451 69.48094,8.51227 11.51476,2.24505 22.78771,5.20498 34.18155,7.80747 10.89082,3.81606 22.30106,6.8145 32.67244,11.44815 7.92539,3.54086 15.02311,8.18798 21.87871,12.92387 22.63945,15.63947 36.23063,27.54773 53.06861,47.39558 18.413,21.70441 24.46771,33.9549 38.44923,57.25929 14.53972,26.02459 25.0906,53.36893 30.27385,81.5643 6.3093,34.32086 5.84461,68.12406 5.45236,102.65337 -1.54998,37.64644 -4.67153,75.36538 -12.18297,112.59708 -3.47784,17.23858 -4.90523,20.94056 -9.64882,37.09921 -3.17791,10.4199 -6.74783,20.76408 -11.6768,30.75769 -2.04792,4.15223 -4.13902,7.80973 -7.50108,11.35679 -0.70313,0.46324 -1.32445,1.01766 -2.10941,1.3897 -3.84224,1.82113 -9.78891,2.52947 -13.94101,3.22207 -10.64996,1.77648 -11.72267,1.72201 -23.3206,3.02053 -6.01411,0.44372 -12.01318,1.04205 -18.04234,1.33115 -16.55921,0.79404 -34.38508,0.71893 -50.87053,0.64898 -33.47125,-0.14204 -66.91751,-0.78109 -100.37183,-1.57937 -46.06634,-1.87393 -92.17191,-4.12897 -137.97608,-8.54206 -12.12869,-1.95091 -24.84376,-2.47561 -36.7045,-5.46127 -1.39889,-0.35213 -5.32648,-1.92044 -4.08636,-1.29908 3.36575,1.68641 7.00161,3.00923 10.50241,4.51384 -0.38441,-0.45938 -0.91503,-0.86049 -1.15324,-1.37815 -1.64289,-3.57018 1.71271,-10.88403 2.40175,-14.35402 0.56257,-2.83311 0.92818,-5.68851 1.39228,-8.53274 5.18456,-31.72549 10.59707,-63.4237 16.35583,-95.0874 4.8991,-29.18119 10.92307,-58.23955 15.06968,-87.49695 1.7582,-11.66236 2.62366,-23.3823 2.9542,-35.11831 0.14619,-6.13837 0.0633,-12.27809 0.007,-18.41682 -0.0776,-6.13556 -0.0404,-12.27132 -0.003,-18.40695 0.005,-0.7907 0.009,-1.5814 0.0139,-2.37211 0,0 -13.47717,-5.43055 -13.47717,-5.43055 v 0 c 0.005,0.79486 0.0108,1.58971 0.0162,2.38457 0.047,6.14774 0.10035,12.29546 0.081,18.44336 0.0115,6.15028 0.0784,12.30008 0.12971,18.4502 -0.036,11.8247 -0.61203,23.64489 -1.91931,35.42746 -3.42412,29.45288 -8.81911,58.72623 -13.61083,88.05334 -5.84971,31.47544 -11.8794,62.93203 -18.07561,94.36559 -0.58883,2.76256 -1.08337,5.53874 -1.76648,8.28769 -1.33758,5.38266 -5.12974,11.37768 -2.503,16.80569 5.11912,2.3826 10.12483,4.92464 15.35733,7.14783 2.03183,0.86327 7.89207,1.82468 9.70654,2.10653 9.96422,1.54786 20.05694,2.58116 30.10231,3.71916 45.24251,3.82973 90.70996,5.76426 136.15348,7.37584 48.68092,1.03599 17.45773,0.4254 67.29111,1.26339 28.50006,0.47926 57.11132,1.47789 85.61549,0.48681 6.21811,-0.2162 12.41553,-0.7131 18.62329,-1.06966 11.68186,-1.15678 13.23441,-1.16332 24.05604,-2.73025 5.95755,-0.86263 12.69929,-1.45919 17.03761,-5.13701 3.18344,-3.79257 5.12717,-7.63138 6.98403,-11.96485 4.40516,-10.2806 7.54206,-20.84686 10.37535,-31.45988 3.96829,-15.38917 5.78996,-21.40278 8.70653,-37.58735 6.76472,-37.5387 9.2917,-75.49404 10.59117,-113.36271 0.39614,-34.10481 1.28261,-68.54088 -4.48496,-102.45269 C 618.88306,177.0816 608.11694,149.6078 593.13947,123.57614 579.4756,100.96164 572.37865,87.23557 554.67673,66.13257 529.02765,35.55553 502.73714,15.60106 462.07225,-2.60352 c -10.38546,-4.64928 -21.85787,-7.58154 -32.7868,-11.37231 -11.37769,-2.56567 -22.64125,-5.47214 -34.13306,-7.69699 -20.92304,-4.05076 -48.72477,-8.29956 -70.46648,-8.78897 -16.27224,-0.36629 -37.98565,1.90196 -53.84226,5.58995 -7.08683,1.64828 -13.73985,4.29437 -20.60978,6.44155 -16.68424,7.63347 -21.1026,8.35334 -34.36293,19.46469 -23.84609,19.98158 -34.57728,46.36252 -44.90851,71.93806 -12.97265,36.17363 -25.25934,72.81716 -29.45705,110.3887 0.0579,2.57856 -0.35322,12.61036 2.89626,14.59664 13.02563,7.9621 14.70393,8.12486 27.72104,8.01704 25.18848,-0.72286 50.36107,-1.75227 75.54071,-2.6407 25.34267,-0.89122 50.70664,-1.31174 76.07014,-0.67799 z" /><circle
       id="path15"
       style="fill:#000000;stroke:#000000"
       cx="491.26675"
       cy="267.75201"
       r="14.111198" /><circle
       id="path16"
       style="fill:#000000;stroke:#000000"
       cx="614.66553"
       cy="274.73685"
       r="14.111198" /><path
       style="fill:#000000;fill-opacity:1;stroke:#000000;stroke-width:12.039;stroke-dasharray:none;stroke-opacity:1"
       id="path17"
       d="m 536.68419,690.35109 c 3.86561,46.35205 4.1047,92.9295 4.28503,139.41666 0.0268,1.46794 0.45846,21.30871 0.29275,24.543 -0.16378,3.19654 -0.39958,7.68798 -2.91294,10.29993 -2.01437,2.09338 -3.94128,1.16753 -6.37365,0.84515 -19.59981,-7.33361 -39.01354,-15.12344 -58.73414,-22.13473 -11.62194,-3.86608 -6.14444,-2.1804 -16.40477,-5.1463 0,0 11.2094,8.62836 11.2094,8.62836 v 0 c 9.90379,2.76648 4.59072,1.17593 15.90864,4.87256 20.09119,7.07365 39.68073,15.45253 59.79724,22.40763 1.38046,-0.0572 2.8239,0.24466 4.1414,-0.17147 5.48326,-1.73189 5.57418,-8.96335 5.59692,-13.40759 0.0427,-8.34358 -1.26501,-16.66172 -1.21622,-25.0015 -1.43517,-46.25437 -2.87041,-92.52024 -2.86629,-138.80151 z" /><path
       style="fill:#000000;fill-opacity:1;stroke:#000000;stroke-width:12.039;stroke-dasharray:none;stroke-opacity:1"
       id="path18"
       d="m 633.64111,692.11705 c 0.78814,29.28274 -0.10146,58.59906 -1.39647,87.8572 -0.60598,12.54623 -1.27765,25.08909 -1.94893,37.63193 -0.33529,6.26489 -0.45189,12.43769 -1.48474,18.62455 -0.62549,0.78099 -1.0446,1.78693 -1.87646,2.34297 -7.15625,4.78351 -24.30699,-4.19895 -30.80275,-7.06276 -2.41485,-1.26152 -4.82971,-2.52303 -7.24456,-3.78455 0,0 10.94545,8.77553 10.94545,8.77553 v 0 c 2.40781,1.21799 4.81563,2.43598 7.22344,3.65397 7.32141,3.15854 24.82576,12.23003 32.50409,5.89027 0.94528,-0.78049 1.37627,-2.02899 2.0644,-3.04348 0.8605,-6.37151 0.75814,-12.67442 0.903,-19.10394 0.28603,-12.6952 0.67759,-25.38764 1.08053,-38.07957 0.94,-28.98583 1.74949,-57.97967 3.30391,-86.94026 z" /><path
       style="fill:#000000;fill-opacity:1;stroke:#000000;stroke-width:12.039;stroke-dasharray:none;stroke-opacity:1"
       id="path20"
       d="m 413.65231,422.07711 c -15.01847,3.25633 -29.30922,9.35051 -43.23534,15.71766 -13.40593,6.88471 -27.07234,14.30364 -37.89988,25.0103 -5.71303,5.64925 -7.29578,8.58133 -11.73004,15.04511 -1.19048,2.49909 -2.7366,4.858 -3.57144,7.49727 -3.61411,11.42555 2.1599,23.54386 9.88771,31.8525 2.69711,2.89983 5.85123,5.33824 8.77684,8.00736 26.86284,20.62994 57.35311,35.68992 89.16105,46.94481 23.08255,8.28019 47.26584,11.30664 71.58244,12.95259 3.70658,0.18963 7.41315,0.37927 11.11973,0.5689 0,0 -10.9926,-8.06882 -10.9926,-8.06882 v 0 c -3.6639,-0.17021 -7.3278,-0.34042 -10.9917,-0.51064 -24.19308,-1.76039 -48.23076,-4.87541 -71.20221,-13.11867 -11.85277,-4.20213 -14.74297,-4.96417 -26.51898,-10.27282 -4.80888,-2.16785 -9.48121,-4.62732 -14.25081,-6.88028 -0.66478,-0.31401 -1.41642,-0.44243 -2.04809,-0.81864 -11.72756,-6.98466 -12.36499,-7.79732 -23.31229,-15.67479 -2.86547,-2.55586 -5.9364,-4.89853 -8.59642,-7.66757 -7.50832,-7.81606 -13.68174,-19.33425 -10.41222,-30.4095 0.7638,-2.58732 2.24263,-4.90724 3.36395,-7.36087 4.43573,-6.62935 5.59409,-9.03313 11.39584,-14.82354 10.6834,-10.66253 24.15691,-18.11472 37.53721,-24.77181 14.15891,-6.25055 28.75949,-12.20758 44.12739,-14.66587 z" /><path
       style="fill:#000000;fill-opacity:1;stroke:#000000;stroke-width:12.039;stroke-dasharray:none;stroke-opacity:1"
       id="path21"
       d="m 750.71472,440.74656 c 6.45345,11.9838 12.8247,24.01858 18.43678,36.42303 4.94837,10.96942 7.47545,22.61227 8.6111,34.52373 0.53224,8.99876 0.88139,18.05257 0.24506,27.05225 -0.68512,10.91 -7.15698,19.17786 -13.49599,27.53966 -5.70737,7.17675 -12.36379,13.41946 -20.10833,18.31241 -6.38889,3.6355 -12.84695,6.66546 -19.94196,8.61353 -12.16075,2.80853 -24.46631,5.00997 -36.85383,6.53601 -9.9928,0.75507 -19.96592,1.61645 -29.95035,2.49095 -12.003,0.96079 -24.04958,1.11095 -36.08443,1.19422 -10.22396,0.0458 -20.44806,0.02 -30.67206,0.007 -9.85937,-0.31776 -19.33777,-3.24982 -28.77927,-5.82821 -4.25422,-1.87744 -8.97163,-2.73324 -13.15071,-4.78964 -0.78309,-0.38533 -3.01734,-1.75437 -2.24757,-1.34308 3.63154,1.94033 7.2233,3.95421 10.83495,5.93132 -5.22725,-4.79779 -12.29973,-6.28852 -18.8905,-10.1375 l 12.94589,8.47883 v 0 c -20.37431,-11.96957 -11.55174,-9.34748 -7.79004,-3.87814 11.76815,7.25341 17.28297,11.16851 29.78837,14.5632 9.49886,2.58683 19.0889,5.35367 29.00761,5.51843 10.17654,-10e-4 20.3534,-0.004 30.52932,-0.13053 12.09361,-0.17483 24.20426,-0.21641 36.26668,-1.19959 9.97121,-0.88103 19.94925,-1.62382 29.91009,-2.59217 12.44264,-1.69276 24.80427,-3.96321 37.07443,-6.62879 7.23359,-2.00446 13.87373,-5.02183 20.30892,-8.89732 7.78073,-5.08189 14.33379,-11.64452 20.12255,-18.90242 6.472,-8.56543 13.23425,-17.0215 14.09743,-28.15862 0.64716,-9.07886 0.30858,-18.23534 -0.21861,-27.3129 -1.21574,-12.11112 -3.68874,-23.94729 -8.75462,-35.10643 -5.49306,-12.27576 -11.97641,-24.03452 -17.61837,-36.24144 z"
       sodipodi:nodetypes="ccccccccccccsscccscccccccccccccc" /><path
       style="fill:#f55135;fill-opacity:1;stroke:none;stroke-width:13.0271;stroke-dasharray:none;stroke-opacity:1"
       d="m 537.32544,465.99625 c 0,0 -47.14539,32.92643 -24.38404,50.39623 22.76136,17.46981 35.70006,-43.27954 35.70006,-43.27954 0,0 -4.84776,53.74319 16.068,54.80261 20.91577,1.05941 12.80261,-42.956 -2.93322,-58.11084"
       id="path24" /><path
       style="fill:#f55135;fill-opacity:1;stroke:none;stroke-width:13.0271;stroke-dasharray:none;stroke-opacity:1"
       d="m 524.99563,437.78719 c 0,0 -45.48495,-35.18462 -55.37417,-8.24996 -9.88923,26.93467 51.95491,21.17311 51.95491,21.17311 0,0 -52.74438,11.39572 -47.51977,31.67613 5.22459,20.28042 44.81941,-0.58655 54.59355,-20.12501"
       id="path24-5" /><path
       style="fill:#f55135;fill-opacity:1;stroke:none;stroke-width:13.0271;stroke-dasharray:none;stroke-opacity:1"
       d="m 534.60604,442.66204 c 0,0 -37.92781,-43.22405 -11.65565,-54.75862 26.27218,-11.53458 24.34285,50.54739 24.34285,50.54739 0,0 8.11497,-53.34772 28.67945,-49.38618 20.56449,3.96153 2.18387,44.77002 -16.71333,55.73273"
       id="path24-5-2" /><path
       style="fill:#f55135;fill-opacity:1;stroke:none;stroke-width:13.0271;stroke-dasharray:none;stroke-opacity:1"
       d="m 566.56205,442.36781 c 0,0 41.3647,-39.94745 54.13996,-14.25571 12.77527,25.69176 -49.32804,26.72747 -49.32804,26.72747 0,0 53.67422,5.55972 50.69863,26.28983 -2.97558,20.73012 -44.61478,4.31802 -56.46686,-14.03446"
       id="path24-5-2-1" /><ellipse
       style="fill:#f5e835;fill-opacity:1;stroke:none;stroke-width:15.775;stroke-dasharray:none;stroke-opacity:1"
       id="path23"
       cx="544.37994"
       cy="452.19559"
       rx="28.205694"
       ry="24.077744" /></g></svg>
